# xmcd CD database file
#
# Track frame offsets:
#	150
#	11580
#	22584
#	35713
#	50208
#	51810
#	69755
#	96228
#	113625
#	131383
#	148177
#	162286
#	181562
#	197279
#	214964
#	230908
#	244309
#	262415
#	282103
#	297696
#
# Disc length: 4284 seconds
#
# Revision: 0
# Processed by: cddbd v1.5.2PL0 Copyright (c) Steve Scherf et al.
# Submitted via: CDex 1.88
#
DISCID=2c10ba14
DTITLE=Gerry Mulligan - Live In California I
DYEAR=1953
DGENRE=Jazz
TTITLE0=Line For Lyons
TTITLE1=Carioca
TTITLE2=My Funny Valentine
TTITLE3=Bark For Barksdale
TTITLE4=Utter Chaos
TTITLE5=Aren't You Glad You're You
TTITLE6=Get Happy
TTITLE7=Poinciana
TTITLE8=Godchild
TTITLE9=Too Marvelous For Words
TTITLE10=Lover Man
TTITLE11=I'll Remember April
TTITLE12=These Follish Things
TTITLE13=All The Things You Are
TTITLE14=Bernie's Tune
TTITLE15=Five Brothers
TTITLE16=I Can't Get Started
TTITLE17=Ida's Side
TTITLE18=Funhouse
TTITLE19=My Funny Valentine
EXTD=YEAR: 1953
EXTT0=
EXTT1=
EXTT2=
EXTT3=
EXTT4=
EXTT5=
EXTT6=
EXTT7=
EXTT8=
EXTT9=
EXTT10=
EXTT11=
EXTT12=
EXTT13=
EXTT14=
EXTT15=
EXTT16=
EXTT17=
EXTT18=
EXTT19=
PLAYORDER=
